uphill_walking_calibrated_grf.mot																																				
version=1																																				
nRows=77																																				
nColumns=37																																				
inDegrees=yes																																				
endheader																																				
time	ground_force1_vx	ground_force1_vy	ground_force1_vz	ground_force1_px	ground_force1_py	ground_force1_pz	ground_torque1_x	ground_torque1_y	ground_torque1_z	ground_force2_vx	ground_force2_vy	ground_force2_vz	ground_force2_px	ground_force2_py	ground_force2_pz	ground_torque2_x	ground_torque2_y	ground_torque2_z	femur_assistance_force_vx	femur_assistance_force_vy	femur_assistance_force_vz	femur_assistance_force_px	femur_assistance_force_py	femur_assistance_force_pz	femur_assistance_torque_x	femur_assistance_torque_y	femur_assistance_torque_z	tibia_assistance_force_vx	tibia_assistance_force_vy	tibia_assistance_force_vz	tibia_assistance_force_px	tibia_assistance_force_py	tibia_assistance_force_pz	tibia_assistance_torque_x	tibia_assistance_torque_y	tibia_assistance_torque_z
29.77	106.544403	458.655365	26.2931	0.738656	0	-0.648253	0	-7.029955	0.000023	0	0	0	0.889	0	-0.279	0	0	0	0	0	0	0	-0.2	0	0	0	0	0	0	0	0	-0.2	0	0	0	0
29.771	106.315521	456.366547	27.132334	0.738615	0	-0.648299	0.000023	-5.442065	0.00002	0	0	0	0.889	0	-0.279	0	0	0	0	0	0	0	-0.2	0	0	0	0	0	0	0	0	-0.2	0	0	0	0
29.772	104.94223	453.467377	28.887094	0.7358	0	-0.647577	0.000013	-3.931781	0.000014	0	0	0	0.889	0	-0.279	0	0	0	0	0	0	0	-0.2	0	0	0	0	0	0	0	0	-0.2	0	0	0	0
29.773	103.645233	448.88974	30.031504	0.734058	0	-0.645623	0.00003	-2.567194	0.00002	0	0	0	0.889	0	-0.279	0	0	0	0	0	0	0	-0.2	0	0	0	0	0	0	0	0	-0.2	0	0	0	0
29.774	103.721527	444.617279	30.489267	0.731228	0	-0.645602	0.000014	-1.985223	0.000011	0	0	0	0.889	0	-0.279	0	0	0	0	0	0	0	-0.2	0	0	0	0	0	0	0	0	-0.2	0	0	0	0
29.775	104.637054	439.734467	30.489267	0.730464	0	-0.645063	0.000027	-1.2278	0.000016	0	0	0	0.889	0	-0.279	0	0	0	0	0	0	0	-0.2	0	0	0	0	0	0	0	0	-0.2	0	0	0	0
29.776	105.399994	436.835297	31.175913	0.72637	0	-0.645549	0.000013	-1.10814	0.000005	0	0	0	0.889	0	-0.279	0	0	0	0	0	0	0	-0.2	0	0	0	0	0	0	0	0	-0.2	0	0	0	0
29.777	105.247406	433.173187	31.938852	0.723775	0	-0.645209	0.000031	0.276233	0	0	0	0	0.889	0	-0.279	0	0	0	0	0	0	0	-0.2	0	0	0	0	0	0	0	0	-0.2	0	0	0	0
29.778	104.255585	429.35849	33.235847	0.723382	0	-0.644125	0.000027	1.617958	0.000016	0	0	0	0.889	0	-0.279	0	0	0	0	0	0	0	-0.2	0	0	0	0	0	0	0	0	-0.2	0	0	0	0
29.779	104.408173	425.696381	34.990608	0.723583	0	-0.643192	0.000007	3.685224	0.000014	0	0	0	0.889	0	-0.279	0	0	0	0	0	0	0	-0.2	0	0	0	0	0	0	0	0	-0.2	0	0	0	0
29.78	105.781464	422.339447	36.363899	0.724132	0	-0.643167	-0.000001	5.769392	0.000022	0	0	0	0.889	0	-0.279	0	0	0	0	0	0	0	-0.2	0	0	0	0	0	0	0	0	-0.2	0	0	0	0
29.781	107.8414	419.135101	38.042366	0.727047	0	-0.642731	0.00001	7.240589	0.00002	0	0	0	0.889	0	-0.279	0	0	0	0	0	0	0	-0.2	0	0	0	0	0	0	0	0	-0.2	0	0	0	0
29.782	109.519867	417.609222	39.034187	0.728534	0	-0.644498	-0.000006	8.532474	0.000015	0	0	0	0.889	0	-0.279	0	0	0	0	0	0	0	-0.2	0	0	0	0	0	0	0	0	-0.2	0	0	0	0
29.783	109.748749	416.541107	39.568245	0.72923	0	-0.645625	0.000034	8.894237	-0.000005	0	0	0	0.889	0	-0.279	0	0	0	0	0	0	0	-0.2	0	0	0	0	0	0	0	0	-0.2	0	0	0	0
29.784	108.985809	413.947113	40.178596	0.727607	0	-0.645754	0.000007	9.909053	0.000013	0	0	0	0.889	0	-0.279	0	0	0	0	0	0	0	-0.2	0	0	0	0	0	0	0	0	-0.2	0	0	0	0
29.785	107.688812	409.674652	41.170418	0.72566	0	-0.643052	0.000034	10.104214	0.000016	0	0	0	0.889	0	-0.279	0	0	0	0	0	0	0	-0.2	0	0	0	0	0	0	0	0	-0.2	0	0	0	0
29.786	106.849579	404.639252	41.323006	0.722925	0	-0.640596	0.000019	10.39657	0.000011	0	0	0	0.889	0	-0.279	0	0	0	0	0	0	0	-0.2	0	0	0	0	0	0	0	0	-0.2	0	0	0	0
29.787	106.239227	401.434906	41.3993	0.718965	0	-0.640121	0.000013	10.568927	0.000008	0	0	0	0.889	0	-0.279	0	0	0	0	0	0	0	-0.2	0	0	0	0	0	0	0	0	-0.2	0	0	0	0
29.788	104.713348	399.603851	41.323006	0.716455	0	-0.641133	0.000002	10.744985	0.000014	0	0	0	0.889	0	-0.279	0	0	0	0	0	0	0	-0.2	0	0	0	0	0	0	0	0	-0.2	0	0	0	0
29.789	102.577118	397.620209	41.01783	0.715424	0	-0.641818	0.000018	10.829943	0.00001	0	0	0	0.889	0	-0.279	0	0	0	0	0	0	0	-0.2	0	0	0	0	0	0	0	0	-0.2	0	0	0	0
29.79	100.974945	394.721039	40.788948	0.714494	0	-0.642642	0.000024	10.916103	0.000029	0	0	0	0.889	0	-0.279	0	0	0	0	0	0	0	-0.2	0	0	0	0	0	0	0	0	-0.2	0	0	0	0
29.791	100.135712	391.211517	40.560066	0.713415	0	-0.642891	0.000025	10.698493	0.000028	0	0	0	0.889	0	-0.279	0	0	0	0	0	0	0	-0.2	0	0	0	0	0	0	0	0	-0.2	0	0	0	0
29.792	100.746063	388.007172	39.949715	0.713958	0	-0.643363	0.000022	11.050286	0.000007	0	0	0	0.889	0	-0.279	0	0	0	0	0	0	0	-0.2	0	0	0	0	0	0	0	0	-0.2	0	0	0	0
29.793	101.051239	385.413177	39.263069	0.715913	0	-0.64206	0.000022	11.069168	0.00001	0	0	0	0.889	0	-0.279	0	0	0	0	0	0	0	-0.2	0	0	0	0	0	0	0	0	-0.2	0	0	0	0
29.794	101.203827	384.345062	38.576424	0.71822	0	-0.642958	0.000012	10.721312	0.000014	0	0	0	0.889	0	-0.279	0	0	0	0	0	0	0	-0.2	0	0	0	0	0	0	0	0	-0.2	0	0	0	0
29.795	100.440887	383.429535	37.203133	0.719298	0	-0.643253	0.000027	9.382424	0.000022	0	0	0	0.889	0	-0.279	0	0	0	0	0	0	0	-0.2	0	0	0	0	0	0	0	0	-0.2	0	0	0	0
29.796	99.830536	381.903656	35.524666	0.721852	0	-0.644229	0.000014	7.547691	0.000003	0	0	0	0.889	0	-0.279	0	0	0	0	0	0	0	-0.2	0	0	0	0	0	0	0	0	-0.2	0	0	0	0
29.797	99.296478	379.614838	33.693611	0.722024	0	-0.64442	0.000022	6.882022	0.000007	0	0	0	0.889	0	-0.279	0	0	0	0	0	0	0	-0.2	0	0	0	0	0	0	0	0	-0.2	0	0	0	0
29.798	98.762421	376.410492	32.778084	0.718442	0	-0.644432	0.000007	6.368143	-0.000003	0	0	0	0.889	0	-0.279	0	0	0	0	0	0	0	-0.2	0	0	0	0	0	0	0	0	-0.2	0	0	0	0
29.799	98.152069	373.206146	31.404795	0.714798	0	-0.643954	0.000004	6.371896	0.000004	0	0	0	0.889	0	-0.279	0	0	0	0	0	0	0	-0.2	0	0	0	0	0	0	0	0	-0.2	0	0	0	0
29.8	97.999481	370.154388	29.115976	0.711457	0	-0.643498	-0.000006	6.368324	0.000009	0	0	0	0.889	0	-0.279	0	0	0	0	0	0	0	-0.2	0	0	0	0	0	0	0	0	-0.2	0	0	0	0
29.801	98.380951	368.62851	27.05604	0.709435	0	-0.645338	0.000015	5.264593	0.000024	0	0	0	0.889	0	-0.279	0	0	0	0	0	0	0	-0.2	0	0	0	0	0	0	0	0	-0.2	0	0	0	0
29.802	98.686127	368.170746	25.682749	0.706338	0	-0.647235	0.000017	4.017422	0.000006	0	0	0	0.889	0	-0.279	0	0	0	0	0	0	0	-0.2	0	0	0	0	0	0	0	0	-0.2	0	0	0	0
29.803	98.533539	366.034515	24.15687	0.704457	0	-0.646815	0.000029	3.339971	0.000005	0	0	0	0.889	0	-0.279	0	0	0	0	0	0	0	-0.2	0	0	0	0	0	0	0	0	-0.2	0	0	0	0
29.804	97.236542	363.440521	23.546518	0.70176	0	-0.645627	0.000009	2.11564	0.000017	0	0	0	0.889	0	-0.279	0	0	0	0	0	0	0	-0.2	0	0	0	0	0	0	0	0	-0.2	0	0	0	0
29.805	96.092133	360.236176	22.554697	0.702581	0	-0.645312	0.000004	0.633576	0.000026	0	0	0	0.889	0	-0.279	0	0	0	0	0	0	0	-0.2	0	0	0	0	0	0	0	0	-0.2	0	0	0	0
29.806	95.329193	358.405121	21.028818	0.70038	0	-0.646127	0.000019	-1.06766	0.000007	0	0	0	0.889	0	-0.279	0	0	0	0	0	0	0	-0.2	0	0	0	0	0	0	0	0	-0.2	0	0	0	0
29.807	96.321014	356.879242	19.197763	0.70098	0	-0.647182	0.000007	-2.542062	0.00001	0	0	0	0.889	0	-0.279	0	0	0	0	0	0	0	-0.2	0	0	0	0	0	0	0	0	-0.2	0	0	0	0
29.808	98.457245	355.353363	17.824472	0.704334	0	-0.647732	0.000004	-3.309534	0.000017	0	0	0	0.889	0	-0.279	0	0	0	0	0	0	0	-0.2	0	0	0	0	0	0	0	0	-0.2	0	0	0	0
29.809	100.2883	353.674896	16.985239	0.70526	0	-0.647566	0.000018	-2.830807	0.000007	0	0	0	0.889	0	-0.279	0	0	0	0	0	0	0	-0.2	0	0	0	0	0	0	0	0	-0.2	0	0	0	0
29.81	100.822357	352.454193	17.214121	0.7032	0	-0.647837	-0.000009	-2.366052	-0.000003	0	0	0	0.889	0	-0.279	0	0	0	0	0	0	0	-0.2	0	0	0	0	0	0	0	0	-0.2	0	0	0	0
29.811	99.601654	350.623138	16.985239	0.706177	0	-0.647987	0.00002	-2.357652	0.000007	0	0	0	0.889	0	-0.279	0	0	0	0	0	0	0	-0.2	0	0	0	0	0	0	0	0	-0.2	0	0	0	0
29.812	97.770599	349.860199	15.917123	0.706321	0	-0.649053	0.000013	-3.121975	0.000018	0	0	0	0.889	0	-0.279	0	0	0	0	0	0	0	-0.2	0	0	0	0	0	0	0	0	-0.2	0	0	0	0
29.813	96.24472	348.486908	14.772714	0.704901	0	-0.650703	0.000003	-4.755764	0.000021	0	0	0	0.889	0	-0.279	0	0	0	0	0	0	0	-0.2	0	0	0	0	0	0	0	0	-0.2	0	0	0	0
29.814	95.405487	347.723969	13.93348	0.701884	0	-0.651781	-0.000008	-5.777863	0.000001	0	0	0	0.889	0	-0.279	0	0	0	0	0	0	0	-0.2	0	0	0	0	0	0	0	0	-0.2	0	0	0	0
29.815	94.184784	346.350677	14.162363	0.698675	0	-0.651162	0.00001	-6.466297	0.000007	0	0	0	0.889	0	-0.279	0	0	0	0	0	0	0	-0.2	0	0	0	0	0	0	0	0	-0.2	0	0	0	0
29.816	92.964081	344.672211	15.306772	0.696057	0	-0.649414	0.000015	-6.291833	0.000012	0	0	0	0.889	0	-0.279	0	0	0	0	0	0	0	-0.2	0	0	0	0	0	0	0	0	-0.2	0	0	0	0
29.817	91.361908	342.53598	16.527475	0.694339	0	-0.646306	0.000006	-5.018347	0.000004	0	0	0	0.889	0	-0.279	0	0	0	0	0	0	0	-0.2	0	0	0	0	0	0	0	0	-0.2	0	0	0	0
29.818	90.370087	341.162689	17.214121	0.694987	0	-0.646013	0.000013	-4.178748	0.000023	0	0	0	0.889	0	-0.279	0	0	0	0	0	0	0	-0.2	0	0	0	0	0	0	0	0	-0.2	0	0	0	0
29.819	90.141205	339.63681	16.908945	0.695594	0	-0.646403	-0.000007	-3.693121	0.000003	0	0	0	0.889	0	-0.279	0	0	0	0	0	0	0	-0.2	0	0	0	0	0	0	0	0	-0.2	0	0	0	0
29.82	90.293793	338.568695	16.2223	0.697428	0	-0.647976	0.000017	-3.681367	0.000005	0	0	0	0.889	0	-0.279	0	0	0	0	0	0	0	-0.2	0	0	0	0	0	0	0	0	-0.2	0	0	0	0
29.821	90.293793	338.416107	15.688242	0.697382	0	-0.650289	0.000017	-3.578019	0.000016	0	0	0	0.889	0	-0.279	0	0	0	0	0	0	0	-0.2	0	0	0	0	0	0	0	0	-0.2	0	0	0	0
29.822	89.912323	337.958344	15.993418	0.697604	0	-0.650918	0.00002	-2.809117	-0.000008	0	0	0	0.889	0	-0.279	0	0	0	0	0	0	0	-0.2	0	0	0	0	0	0	0	0	-0.2	0	0	0	0
29.823	89.759735	336.73764	17.137827	0.697595	0	-0.649401	0.000027	-1.162304	0.000019	0	0	0	0.889	0	-0.279	0	0	0	0	0	0	0	-0.2	0	0	0	0	0	0	0	0	-0.2	0	0	0	0
29.824	90.598969	335.211761	19.350351	0.698586	0	-0.647263	0.000016	0.91483	0.000018	0	0	0	0.889	0	-0.279	0	0	0	0	0	0	0	-0.2	0	0	0	0	0	0	0	0	-0.2	0	0	0	0
29.825	91.59079	334.448822	21.410288	0.697259	0	-0.644909	0.000009	2.263041	0.000011	0	0	0	0.889	0	-0.279	0	0	0	0	0	0	0	-0.2	0	0	0	0	0	0	0	0	-0.2	0	0	0	0
29.826	92.124847	334.296234	22.096933	0.696482	0	-0.644693	0.000006	3.051236	0.000003	0	0	0	0.889	0	-0.279	0	0	0	0	0	0	0	-0.2	0	0	0	0	0	0	0	0	-0.2	0	0	0	0
29.827	92.124847	334.448822	22.096933	0.694339	0	-0.645822	0.000014	3.055612	0.000012	0	0	0	0.889	0	-0.279	0	0	0	0	0	0	0	-0.2	0	0	0	0	0	0	0	0	-0.2	0	0	0	0
29.828	91.97226	335.211761	22.249521	0.691667	0	-0.647081	0.000012	3.126245	0.000003	0	0	0	0.889	0	-0.279	0	0	0	0	0	0	0	-0.2	0	0	0	0	0	0	0	0	-0.2	0	0	0	0
29.829	91.819672	335.516937	23.012461	0.689218	0	-0.647328	-0.000004	3.841872	0.000017	0	0	0	0.889	0	-0.279	0	0	0	0	0	0	0	-0.2	0	0	0	0	0	0	0	0	-0.2	0	0	0	0
29.83	92.735199	334.753998	24.385752	0.687142	0	-0.646435	0.000002	5.597028	0.000016	0	0	0	0.889	0	-0.279	0	0	0	0	0	0	0	-0.2	0	0	0	0	0	0	0	0	-0.2	0	0	0	0
29.831	93.72702	333.685883	26.216806	0.686415	0	-0.644922	0.000002	7.776212	0.000007	0	0	0	0.889	0	-0.279	0	0	0	0	0	0	0	-0.2	0	0	0	0	0	0	0	0	-0.2	0	0	0	0
29.832	94.871429	333.685883	28.200449	0.684586	0	-0.644373	0.000007	9.563431	0.00001	0	0	0	0.889	0	-0.279	0	0	0	0	0	0	0	-0.2	0	0	0	0	0	0	0	0	-0.2	0	0	0	0
29.833	95.329193	333.380707	29.039682	0.683016	0	-0.644671	0.000001	10.01693	0.000003	0	0	0	0.889	0	-0.279	0	0	0	0	0	0	0	-0.2	0	0	0	0	0	0	0	0	-0.2	0	0	0	0
29.834	95.786957	333.991058	28.963388	0.680671	0	-0.646817	-0.000001	9.782357	0.000006	0	0	0	0.889	0	-0.279	0	0	0	0	0	0	0	-0.2	0	0	0	0	0	0	0	0	-0.2	0	0	0	0
29.835	96.24472	333.83847	28.810801	0.682079	0	-0.647516	0.000016	9.689498	0.000016	0	0	0	0.889	0	-0.279	0	0	0	0	0	0	0	-0.2	0	0	0	0	0	0	0	0	-0.2	0	0	0	0
29.836	96.549896	332.617767	29.497446	0.68128	0	-0.645601	0.000002	10.366983	0.000005	0	0	0	0.889	0	-0.279	0	0	0	0	0	0	0	-0.2	0	0	0	0	0	0	0	0	-0.2	0	0	0	0
29.837	97.160248	330.786713	30.260386	0.680992	0	-0.642426	0.00002	11.368979	0.000001	0	0	0	0.889	0	-0.279	0	0	0	0	0	0	0	-0.2	0	0	0	0	0	0	0	0	-0.2	0	0	0	0
29.838	97.465424	329.260834	30.107798	0.679699	0	-0.640773	0.000016	11.757412	0.000006	0	0	0	0.889	0	-0.279	0	0	0	0	0	0	0	-0.2	0	0	0	0	0	0	0	0	-0.2	0	0	0	0
29.839	96.855072	329.56601	29.039682	0.67981	0	-0.642142	0.000007	10.834888	0.000015	0	0	0	0.889	0	-0.279	0	0	0	0	0	0	0	-0.2	0	0	0	0	0	0	0	0	-0.2	0	0	0	0
29.84	95.329193	330.786713	28.124155	0.682468	0	-0.644087	0.000011	8.821278	0.000017	0	0	0	0.889	0	-0.279	0	0	0	0	0	0	0	-0.2	0	0	0	0	0	0	0	0	-0.2	0	0	0	0
29.841	94.184784	332.617767	27.513803	0.680913	0	-0.647069	0.000005	7.906701	0.000002	0	0	0	0.889	0	-0.279	0	0	0	0	0	0	0	-0.2	0	0	0	0	0	0	0	0	-0.2	0	0	0	0
29.842	93.72702	333.685883	27.513803	0.680196	0	-0.647666	0.000004	7.89852	0.000013	0	0	0	0.889	0	-0.279	0	0	0	0	0	0	0	-0.2	0	0	0	0	0	0	0	0	-0.2	0	0	0	0
29.843	93.650726	333.83847	28.200449	0.680617	0	-0.646784	0.000004	8.137572	0.000012	0	0	0	0.889	0	-0.279	0	0	0	0	0	0	0	-0.2	0	0	0	0	0	0	0	0	-0.2	0	0	0	0
29.844	93.879608	334.143646	28.353037	0.678169	0	-0.645389	0.000015	8.342231	-0.000007	0	0	0	0.889	0	-0.279	0	0	0	0	0	0	0	-0.2	0	0	0	0	0	0	0	0	-0.2	0	0	0	0
29.845	93.345551	334.143646	27.43751	0.676707	0	-0.645389	0.000015	7.102228	0.000021	0	0	0	0.889	0	-0.279	0	0	0	0	0	0	0	-0.2	0	0	0	0	0	0	0	0	-0.2	0	0	0	0
29.846	92.277435	334.143646	25.453867	0.675611	0	-0.646485	0.000021	4.691448	-0.000001	0	0	0	0.889	0	-0.279	0	0	0	0	0	0	0	-0.2	0	0	0	0	0	0	0	0	-0.2	0	0	0	0
